<?xml version="1.0" encoding="utf-8"?>
<!-- Generator: Adobe Illustrator 21.1.0, SVG Export Plug-In . SVG Version: 6.00 Build 0)  -->
<svg version="1.1" id="Layer_1" xmlns="http://www.w3.org/2000/svg" xmlns:xlink="http://www.w3.org/1999/xlink" x="0px" y="0px"
	 viewBox="0 0 66 66" style="enable-background:new 0 0 66 66;" xml:space="preserve">
<g>
	<path d="M9.2,19.7L9.2,19.7c-0.2,0.2-0.2,0.3-0.1,0.4c0,0,0.1,0,0.1,0c0.3,5.7,0.6,14.6,0.5,18.6L9.7,49c0,4,1,6.3,6.2,6.4
		c0,0,27.3-0.1,33.4,0c5.8,0,7-2,7-6.4c-0.2-18.7,0.6-32.8,0.7-34.2c0.2-2.4-1.2-5.2-3.8-6.3c0.1-0.1,0.1-0.2,0-0.3
		c-0.1-0.1-0.3-0.1-0.4,0l-0.1,0.1c-1.6-0.6-3.4-0.6-4.9-0.6H18.2c-2.3,0-4.6,0-6.4,1.4c-0.1,0-0.2,0.1-0.2,0.1
		c-1.7,1.3-2.7,3.5-2.5,5.6C9,15.1,9.1,17,9.2,19.7z M10.7,49l0-0.5l0.7,0.7l-0.7,0.7C10.7,49.5,10.7,49.3,10.7,49z M10.7,45.7
		l0.7,0.7l-0.7,0.7L10.7,45.7z M10.8,41.6l1,1l-1,1L10.8,41.6z M10.8,38.7c0-0.4,0-0.9,0-1.3l1.6,1.6l-1.6,1.6L10.8,38.7z
		 M11.3,37.2l-0.5-0.5c0-0.7,0-1.4,0-2.2l0.6-0.6l1.6,1.6c0,0,0,0,0,0L11.3,37.2C11.3,37.1,11.3,37.1,11.3,37.2z M10.7,33.7
		c0-0.2,0-0.3,0-0.5l0.3,0.3L10.7,33.7z M10.6,28.4l1.1,1.1l-1.1,1.1C10.6,29.9,10.6,29.2,10.6,28.4z M10.7,27.8l-0.1-0.1
		c0-0.9-0.1-1.8-0.1-2.7c0,0,0,0,0,0c0.1,0,0.1,0,0.2-0.1l0.4-0.4c0.1,0.1,1.3,1.3,1.4,1.3c0,0,0,0,0,0l-1.8,1.8
		C10.7,27.7,10.7,27.8,10.7,27.8z M10.4,24.5c0-0.2,0-0.4,0-0.5l0.3,0.3L10.4,24.5z M10.2,19.4l0.3-0.3l1.2,1.2l-1.4,1.4
		C10.3,20.9,10.3,20.1,10.2,19.4z M10.2,18.1c-0.1-1.3-0.1-2.4-0.1-2.9l0.7-0.7l1.9,1.9l-2.1,2.1L10.2,18.1z M10,14.5
		c0-0.2,0-0.5,0-0.7l0.3,0.3L10,14.5z M50.5,10.5l-1.2-1.2L49.5,9c0.1-0.1,0.1-0.2,0-0.2c0.6,0,1.3,0.1,1.9,0.2v0.6L50.5,10.5z
		 M48.9,8.9l-0.2-0.2c0.1,0,0.2,0,0.4,0L48.9,8.9z M48,8.8C48.1,8.8,48.1,8.8,48,8.8l0.5,0.5l-1.8,1.8c-0.1,0.1-0.1,0.3,0,0.4
		c0.1,0.1,0.3,0.1,0.4,0l1.8-1.8l1.2,1.2l-0.2,0.2c-0.1,0.1-0.1,0.3,0,0.4c0.1,0.1,0.3,0.1,0.4,0l1.2-1.2v1.2c0,0.1,0.1,0.2,0.2,0.2
		s0.2-0.1,0.2-0.2V9.8l0.5-0.5c2.6,0.9,3.8,3.5,3.6,5.4c-0.1,1-0.9,14.3-0.7,34.3c0,3.8-0.7,5.4-6,5.4c-4.9,0-33.9,0-33.4,0
		c-3.2-0.1-5-0.9-5.2-3.9l1-1l0.2,0.2c0.1,0.1,0.3,0.1,0.4,0c0.1-0.1,0.1-0.3,0-0.4L12,49.1l2.2-2.2c0.1-0.1,0.1-0.3,0-0.4
		s-0.3-0.1-0.4,0l-2.2,2.2l-1-1l0-0.1c0,0,0,0,0,0c0.1,0,0.1,0,0.2-0.1l0.9-0.9l0.4,0.4c0.1,0.1,0.3,0.1,0.4,0
		c0.1-0.1,0.1-0.3,0-0.4l-0.4-0.4l2.5-2.5c0.1-0.1,0.1-0.3,0-0.4s-0.3-0.1-0.4,0L11.8,46L10.7,45l0-0.7l1.4-1.3l0.8,0.8
		c0.1,0.1,0.3,0.1,0.4,0s0.1-0.3,0-0.4l-0.8-0.8L15,40c0.1-0.1,0.1-0.3,0-0.4s-0.3-0.1-0.4,0l-2.6,2.6L11,41.1l1.8-1.8l0.3,0.3
		c0.1,0.1,0.3,0.1,0.4,0c0.1-0.1,0.1-0.3,0-0.4L13.1,39l2.5-2.5c0.1-0.1,0.1-0.3,0-0.4s-0.3-0.1-0.4,0l-2.5,2.5l-1.1-1.1
		c0,0,0.1,0,0.1,0l3-3c0.1-0.1,0.1-0.3,0-0.4s-0.3-0.1-0.4,0l-1,1c0,0,0,0,0,0l-1.6-1.6l2.5-2.5c0.1-0.1,0.1-0.3,0-0.4
		s-0.3-0.1-0.4,0l-2.5,2.5l-0.6-0.6c0-0.4,0-0.8,0-1.2l1.4-1.4l0.3,0.3c0.1,0.1,0.3,0.1,0.4,0c0.1-0.1,0.1-0.3,0-0.4l-0.3-0.3
		l2.1-2.1c0.1-0.1,0.1-0.3,0-0.4s-0.3-0.1-0.4,0l-2.1,2.1L11,28.1c0.1,0,0.1,0,0.2-0.1l3-3c0.1-0.1,0.1-0.3,0-0.4s-0.3-0.1-0.4,0
		l-1.1,1.1c0-0.1,0-0.1-0.1-0.2l-1.3-1.3l1.9-1.9c0.1-0.1,0.1-0.3,0-0.4s-0.3-0.1-0.4,0l-1.9,1.9l-0.7-0.7c0-0.3,0-0.5,0-0.8
		l1.7-1.7l0.7,0.7c0.1,0.1,0.3,0.1,0.4,0c0.1-0.1,0.1-0.3,0-0.4l-0.7-0.7l1-1c0.1-0.1,0.1-0.3,0-0.4s-0.3-0.1-0.4,0l-1,1l-1.2-1.2
		l2.1-2.1l0.2,0.2c0.1,0.1,0.3,0.1,0.4,0c0.1-0.1,0.1-0.3,0-0.4l-0.2-0.2l1.3-1.3c0.1-0.1,0.1-0.3,0-0.4c-0.1-0.1-0.3-0.1-0.4,0
		L12.9,16l-1.9-1.9l2.5-2.5l0.8,0.8L13,13.7c-0.1,0.1-0.1,0.3,0,0.4c0.1,0.1,0.3,0.1,0.4,0l1.4-1.4l0.8,0.8c0.1,0.1,0.3,0.1,0.4,0
		c0.1-0.1,0.1-0.3,0-0.4l-0.8-0.8l1.2-1.2c0.1-0.1,0.1-0.3,0-0.4c-0.1-0.1-0.3-0.1-0.4,0L14.7,12l-0.9-0.9c0,0,0-0.1,0-0.1
		c0,0-0.1,0-0.1,0l-0.8-0.8l1-1c1-0.3,2-0.4,3-0.4c-0.1,0-0.1,0-0.2,0.1c-0.1,0.1-0.1,0.3,0,0.4l1.8,1.8L18,11.3
		c-0.1,0.1-0.1,0.3,0,0.4c0.1,0.1,0.3,0.1,0.4,0l0.4-0.4l0.9,0.9c0.1,0.1,0.3,0.1,0.4,0c0.1-0.1,0.1-0.3,0-0.4l-0.9-0.9l2.2-2.2h0.4
		L23,10l-0.4,0.4c-0.1,0.1-0.1,0.3,0,0.4c0.1,0.1,0.3,0.1,0.4,0l0.4-0.4l1.3,1.3c0.1,0.1,0.3,0.1,0.4,0c0.1-0.1,0.1-0.3,0-0.4
		L23.7,10l1.1-1.1c0,0,0.1-0.1,0.1-0.1h2.4l-1.6,1.6c-0.1,0.1-0.1,0.3,0,0.4c0.1,0.1,0.3,0.1,0.4,0L28,8.8l0.8,0.8l-1.1,1.1
		c-0.1,0.1-0.1,0.3,0,0.4c0.1,0.1,0.3,0.1,0.4,0l1.1-1.1l0.8,0.8c0.1,0.1,0.3,0.1,0.4,0c0.1-0.1,0.1-0.3,0-0.4l-0.8-0.8l0.3-0.3
		c0.1-0.1,0.1-0.3,0-0.4c-0.1-0.1-0.3-0.1-0.4,0l-0.3,0.3l-0.5-0.5h5l1.3,1.3l-1,1c-0.1,0.1-0.1,0.3,0,0.4c0.1,0.1,0.3,0.1,0.4,0
		l1-1l0.8,0.8c0.1,0.1,0.3,0.1,0.4,0c0.1-0.1,0.1-0.3,0-0.4L35.6,10l0.7-0.7c0.1-0.1,0.1-0.3,0-0.4c-0.1-0.1-0.3-0.1-0.4,0l-0.7,0.7
		l-0.9-0.9h3.5l0.5,0.5L36.5,11c-0.1,0.1-0.1,0.3,0,0.4c0.1,0.1,0.3,0.1,0.4,0l1.8-1.8l1.6,1.6c0,0.1,0,0.2,0,0.3
		c0.1,0.1,0.3,0.1,0.4,0L43,9.1c0.1-0.1,0.1-0.2,0-0.3h2.7l-0.9,0.9L44.1,9c-0.1-0.1-0.3-0.1-0.4,0c-0.1,0.1-0.1,0.3,0,0.4l0.7,0.7
		l-1.1,1.1c-0.1,0.1-0.1,0.3,0,0.4c0.1,0.1,0.3,0.1,0.4,0l1.1-1.1l1.7,1.7c0.1,0.1,0.3,0.1,0.4,0c0.1-0.1,0.1-0.3,0-0.4L45.2,10
		l1.2-1.2h1.4C47.9,8.8,48,8.8,48,8.8z M12.5,9.8L12.5,9.8C12.5,9.8,12.6,9.8,12.5,9.8L12.5,9.8z M22.4,8.8h1.9l-0.9,0.9L22.4,8.8z
		 M40.5,10.8L39,9.2L39.2,9c0.1-0.1,0.1-0.1,0.1-0.2h3.3L40.5,10.8z M38.6,8.9l-0.1-0.1h0.3L38.6,8.9z M20.6,8.8l-1.8,1.8L17,8.8
		c0,0-0.1-0.1-0.2-0.1c0.5,0,0.9,0,1.3,0H20.6z M12.1,10.1L12.1,10.1c-0.2,0.3-0.7,0.7-0.4,0.9c0,0,0.1,0.1,0.2,0.1
		c0.2,0,0.6-0.5,0.7-0.6l0.7,0.7l-2.5,2.5l-0.6-0.6C10.4,12,11.1,10.8,12.1,10.1z"/>
	<path d="M3.1,54c-0.1,5.1,1.3,7.8,7.3,8.1c-0.2,2,1.4,2.9,8.3,2.9c3.9,0,7.5,0,7.1-2.9c4.9,0,10.2,0,15,0c-0.2,2.4,2.1,2.9,8.3,2.9
		c4.1,0,7.6-0.1,7.1-3c6.1-0.5,6.7-4.1,6.6-8.1c-0.3-24.2,0.7-42.4,0.9-44c0,0,0,0,0,0c0.3-3-1.5-6.2-4.1-7.7C57.3,1,54.4,1,52.1,1
		C9.8,1,9.5,0.6,6.3,2.3C3.7,3.8,1.9,7,2.2,10C2.3,11,3.4,27.9,3.1,54z M24.6,63.3L24.6,63.3c-1,1.1-12,1-13-0.2
		c-0.2-0.2-0.3-0.5-0.2-0.9c0,0,4.5,0,13.5,0C25,62.5,24.9,63,24.6,63.3z M55.1,63.3L55.1,63.3c-1,1-12,1-13-0.2
		c-0.2-0.2-0.3-0.5-0.2-0.9c0.3,0,13.2,0,13.5,0C55.4,62.5,55.3,63,55.1,63.3z M6.8,3.2C9.7,1.6,9.4,2,52.1,2c2.3,0,4.9,0,7.1,1.2
		c2.3,1.3,3.8,4.1,3.6,6.7c-0.1,1-1.2,18-0.9,44.1c0,3.7-0.2,6.8-6.3,7.1c-0.2,0-30.1,0-30.4,0c-6.5,0-14.2,0-14.2,0
		C4.9,61,4,58.6,4.1,54C4.4,29.8,3.4,11.5,3.2,9.9C3,7.3,4.5,4.4,6.8,3.2z"/>
	<path d="M38.6,39.2c0.1-0.5,0.2-1,0.2-1.5l4.5-2.5c0.6-0.3,1.4-0.8,2-1.5c0,0,0,0,0,0c0.9-1.2,0.8-2.7-0.7-2.8c-1,0-2.8,1-3.7,1.5
		l-0.1,0c-1.3,0.7-2.6,1.5-4,2.2c-0.5-0.3-1-0.5-1.6-0.7c-0.1-2.3-0.1-4.6-0.2-6.9l0-0.5c0-2.3-1.9-2.3-2.5-1.1
		c-0.4,0.8-0.3,1.7-0.4,8.5c-0.8,0.2-1.2,0.5-1.6,0.8c-2.1-1.1-4.2-2.3-6.3-3.4c-2.3-1.3-3.5,1.2-1.1,2.6c2.6,1.6,4.3,2.6,6,3.6
		c0,0.6,0,1.2,0.2,1.8c-1.9,1.2-3.9,2.4-5.9,3.5L23,43.1c-1.1,0.6-1.2,1.3-1.1,1.7c0.1,0.7,0.8,1,1.4,1c0,0,0,0,0,0
		c0.9,0,1.4-0.5,7.7-4c0.3,0.2,0.7,0.4,1,0.6c-0.1,6.6-0.2,7.2,0.2,8.2c0.2,0.6,0.9,1.4,1.7,1.4c0.1,0,0.2,0,0.3,0
		c0.3-0.1,0.6-0.3,0.8-0.6c0.8-1.2,0.5-5.9,0.5-8.9c0.3-0.1,0.7-0.3,1-0.5l4.9,2.9c1.6,0.9,3.6,1.6,4.5-0.1
		C46.2,43.5,44.6,42.6,38.6,39.2z M41.3,33.4L41.3,33.4c0.6-0.3,3.1-1.7,3.5-1.3c0.1,0.1,0,0.7-0.3,1.1c-0.4,0.5-1.1,0.9-1.6,1.2
		l-4.3,2.3c-0.2-0.5-0.5-1-0.8-1.3C38.9,34.7,40.1,34,41.3,33.4z M33.8,25.8c0.2,0.1,0.3,0.4,0.3,0.9l0,0.5c0,2.3,0.1,4.5,0.2,6.7
		c-0.4,0-0.8,0-1.1,0C33.2,29.2,33,25.5,33.8,25.8z M23.6,33.1c-1.2-0.7-1.1-1.5,0.1-0.8l0.7,0.4c1.8,1,3.5,2,5.3,2.9
		c-0.2,0.3-0.4,0.6-0.5,0.9C28,35.8,27.6,35.5,23.6,33.1z M23.2,44.9c-0.2,0-0.4-0.1-0.4-0.2c0-0.2,0.2-0.4,0.6-0.7l0.4-0.3
		c2-1.1,3.8-2.2,5.8-3.4c0.1,0.3,0.4,0.7,0.6,0.9C29.8,41.4,23.7,44.9,23.2,44.9z M33.7,34.8c0.3,0,0.6,0,0.9,0.1c0,0,0,0,0.1,0
		c0,0,0,0,0.1,0c2.2,0.4,3.7,2.1,2.9,4.2c0,0,0,0,0,0c0,0,0,0.1-0.1,0.1c-0.4,1.1-1.3,2-2.7,2.5C29.8,43.1,27.7,34.8,33.7,34.8z
		 M33.9,51.1c-0.2,0-0.6-0.4-0.8-0.8c-0.4-1-0.2-2.4-0.2-7.5c0.5,0.1,1,0.1,1.5,0C34.6,44.4,34.8,50.9,33.9,51.1z M43.8,44.9
		c-1-0.1-2-0.9-6.4-3.5c0.3-0.3,0.7-0.8,0.9-1.2c1.5,0.8,6.8,3.7,6.6,4.5C44.9,44.8,44.3,45,43.8,44.9z"/>
	<path d="M31.6,11.1l1.8-1.8c0.1-0.1,0.1-0.3,0-0.4c-0.1-0.1-0.3-0.1-0.4,0l-1.8,1.8c-0.1,0.1-0.1,0.3,0,0.4
		C31.4,11.2,31.5,11.2,31.6,11.1z"/>
</g>
</svg>
